#tb 0: 1/2
#media_type 0: video
#codec_id 0: rawvideo
#dimensions 0: 320x240
#sar 0: 1/1
0,          0,          0,        1,   230400, 0x4c07bb6d
0,          1,          1,        1,   230400, 0xda14169e
0,          2,          2,        1,   230400, 0x24e4f8be
0,          3,          3,        1,   230400, 0xb21cd2b1
0,          4,          4,        1,   230400, 0x7210f2b4
0,          5,          5,        1,   230400, 0xd09b129c
0,          6,          6,        1,   230400, 0xe985d383
0,          7,          7,        1,   230400, 0x35ec3755
0,          8,          8,        1,   230400, 0x8054d35f
0,          9,          9,        1,   230400, 0xba125dfd
0,         10,         10,        1,   230400, 0xa019c2e6
0,         11,         11,        1,   230400, 0x7b820c82
0,         12,         12,        1,   230400, 0x2b4414ae
0,         13,         13,        1,   230400, 0xe85d6d8c
0,         14,         14,        1,   230400, 0x5496cc50
0,         15,         15,        1,   230400, 0xeedd7868
0,         16,         16,        1,   230400, 0x2d34c7ed
0,         17,         17,        1,   230400, 0x97d40fff
0,         18,         18,        1,   230400, 0x4981c8ba
0,         19,         19,        1,   230400, 0xf27867bd
